<svg id="icons" enable-background="new 0 0 64 64" height="512" viewBox="0 0 64 64" width="512" xmlns="http://www.w3.org/2000/svg"><path d="m34.01 16.49c0-.83-.67-1.5-1.5-1.5-.819 0-1.5.67-1.5 1.5s.681 1.5 1.5 1.5c.83 0 1.5-.67 1.5-1.5zm-6.24-5.25c.78.779 2.051.779 2.83 0l2.83-2.83c.78-.78.78-2.05 0-2.83-.779-.78-2.05-.78-2.83 0l-2.82 2.83c-.79.78-.79 2.05-.01 2.83zm4.23-10.24c6.08 0 11 4.92 11 11 0 6.07-4.92 11-11 11-6.07 0-11-4.93-11-11 0-6.08 4.93-11 11-11z" fill="#f5f7fa"/><path d="m27.77 11.24c-.779-.78-.779-2.05.011-2.83l2.819-2.83c.78-.78 2.051-.78 2.83 0 .78.78.78 2.05 0 2.83l-2.83 2.83c-.78.78-2.05.78-2.83 0z" fill="#5d9cec"/><path d="m32.51 14.99c.83 0 1.5.67 1.5 1.5s-.67 1.5-1.5 1.5c-.819 0-1.5-.67-1.5-1.5s.68-1.5 1.5-1.5z" fill="#967adc"/><path d="m54 49c0-1.66-1.34-3-3-3h-2.909l-.001-.01-.06.01h-1.03l-.06-.01-.001.01h-33.939c-1.66 0-3 1.34-3 3h-9v15.001h44 5.03 12.97v-15.001z" fill="#ec87c0"/><path d="m51 36.99c0 3.42-1.56 6.47-4 8.49l-.06.51-1.94 17.01h-4c-2.77 0-5-2.24-5-5v-4c0-2.21-1.79-4-4-4s-4 1.79-4 4v4c0 2.76-2.24 5-5 5h-4l-1.94-17.01-.06-.51c-2.45-2.021-4-5.07-4-8.49 0-6.07 4.92-11 11-11 3.16 0 5.99 1.34 8 3.47 2.01-2.13 4.84-3.47 8-3.47 6.08 0 11 4.93 11 11z" fill="#e6e9ed"/><path d="m46.999 46.484c-.289 0-.574-.124-.772-.363-.352-.427-.291-1.057.135-1.408 2.313-1.908 3.641-4.722 3.641-7.717 0-5.513-4.486-9.998-10-9.998-2.775 0-5.358 1.119-7.272 3.151-.377.401-1.078.401-1.455 0-1.914-2.032-4.497-3.151-7.272-3.151-5.514 0-10 4.485-10 9.998 0 2.994 1.324 5.806 3.633 7.714.426.352.486.981.134 1.407-.351.424-.981.486-1.407.134-2.771-2.289-4.359-5.662-4.359-9.255 0-6.615 5.383-11.998 12-11.998 2.992 0 5.797 1.082 8 3.068 2.203-1.986 5.008-3.068 8-3.068 6.617 0 12 5.382 12 11.998 0 3.595-1.592 6.97-4.367 9.26-.19.153-.415.228-.639.228z"/><path d="m36.002 55.008c-.553 0-1-.447-1-1 0-1.654-1.346-3-3-3s-3 1.346-3 3c0 .553-.447 1-1 1s-1-.447-1-1c0-2.757 2.243-5 5-5s5 2.243 5 5c0 .553-.447 1-1 1z"/><path d="m18.999 64c-.502 0-.935-.376-.992-.887l-2.002-17.52c-.063-.549.331-1.044.88-1.106.536-.072 1.045.33 1.106.88l2.002 17.52c.063.549-.331 1.044-.88 1.106-.038.005-.076.007-.114.007z"/><path d="m23.001 64c-.553 0-1-.447-1-1s.447-1 1-1c2.206 0 4-1.794 4-4 0-.553.447-1 1-1s1 .447 1 1c0 3.309-2.691 6-6 6z"/><path d="m23.001 64h-4.001c-.553 0-1-.447-1-1s.447-1 1-1h4.001c.553 0 1 .447 1 1s-.447 1-1 1z"/><path d="m28.001 59c-.553 0-1-.447-1-1v-3.994c0-.553.447-1 1-1s1 .447 1 1v3.994c0 .553-.447 1-1 1z"/><path d="m45.002 64c-.038 0-.076-.002-.114-.007-.549-.063-.943-.558-.88-1.106l2.002-17.52c.062-.55.565-.953 1.106-.88.549.063.943.558.88 1.106l-2.002 17.52c-.057.511-.49.887-.992.887z"/><path d="m41 64c-3.309 0-6-2.691-6-6 0-.553.447-1 1-1s1 .447 1 1c0 2.206 1.794 4 4 4 .553 0 1 .447 1 1s-.447 1-1 1z"/><path d="m45.001 64h-4.001c-.553 0-1-.447-1-1s.447-1 1-1h4.001c.553 0 1 .447 1 1s-.447 1-1 1z"/><path d="m36 59c-.553 0-1-.447-1-1v-3.994c0-.553.447-1 1-1s1 .447 1 1v3.994c0 .553-.447 1-1 1z"/><path d="m10 50.002c-.553 0-1-.447-1-1 0-2.206 1.794-4 4-4 .553 0 1 .447 1 1s-.447 1-1 1c-1.103 0-2 .897-2 2 0 .553-.447 1-1 1z"/><path d="m16.998 47.002h-3.998c-.553 0-1-.447-1-1s.447-1 1-1h3.998c.553 0 1 .447 1 1s-.447 1-1 1z"/><path d="m10 50.002h-8.998c-.553 0-1-.447-1-1s.447-1 1-1h8.998c.553 0 1 .447 1 1s-.447 1-1 1z"/><path d="m54 50.002c-.553 0-1-.447-1-1 0-1.103-.897-2-2-2-.553 0-1-.447-1-1s.447-1 1-1c2.206 0 4 1.794 4 4 0 .553-.447 1-1 1z"/><path d="m51 47.002h-3.998c-.553 0-1-.447-1-1s.447-1 1-1h3.998c.553 0 1 .447 1 1s-.447 1-1 1z"/><path d="m62.998 50.002h-8.998c-.553 0-1-.447-1-1s.447-1 1-1h8.998c.553 0 1 .447 1 1s-.447 1-1 1z"/><path d="m32.002 24c-6.617 0-12-5.383-12-12s5.383-12 12-12 12 5.383 12 12-5.383 12-12 12zm0-22c-5.514 0-10 4.486-10 10s4.486 10 10 10 10-4.486 10-10-4.486-10-10-10z"/><path d="m32.516 18.997c-1.379 0-2.5-1.122-2.5-2.5s1.121-2.5 2.5-2.5 2.5 1.122 2.5 2.5-1.121 2.5-2.5 2.5zm0-3c-.275 0-.5.224-.5.5s.225.5.5.5.5-.224.5-.5-.225-.5-.5-.5z"/><path d="m32.516 15.999c-.553 0-1-.448-1-1v-1c0-.552.447-1 1-1s1 .448 1 1v1c0 .552-.448 1-1 1z"/><path d="m32.516 19.997c-.553 0-1-.448-1-1v-1c0-.552.447-1 1-1s1 .448 1 1v1c0 .552-.448 1-1 1z"/><path d="m31.216 16.749c-.17 0-.342-.043-.499-.134l-.865-.5c-.479-.276-.643-.888-.366-1.366.276-.478.889-.643 1.366-.365l.865.5c.479.276.643.888.366 1.366-.186.319-.521.499-.867.499z"/><path d="m34.679 18.749c-.17 0-.342-.043-.499-.134l-.865-.5c-.479-.276-.643-.888-.366-1.366.276-.478.889-.643 1.366-.365l.865.5c.479.276.643.888.366 1.366-.186.319-.522.499-.867.499z"/><path d="m30.353 18.749c-.346 0-.682-.179-.867-.5-.276-.479-.112-1.09.366-1.366l.865-.5c.477-.278 1.089-.113 1.366.365.276.479.112 1.09-.366 1.366l-.865.5c-.158.092-.33.135-.499.135z"/><path d="m33.815 16.749c-.346 0-.683-.179-.867-.5-.276-.479-.111-1.09.367-1.366l.867-.5c.479-.277 1.091-.112 1.365.367.276.479.111 1.09-.367 1.366l-.867.5c-.157.09-.329.133-.498.133z"/><path d="m38.013 15.998c-.328 0-.648-.162-.838-.459-.505-.791-1.068-2.546.022-4.11.597-.855-.002-1.857-.027-1.9-.286-.468-.145-1.083.321-1.374.463-.29 1.074-.156 1.369.307.505.792 1.068 2.548-.022 4.112-.597.855.002 1.855.027 1.897.286.468.145 1.083-.32 1.374-.166.103-.351.153-.532.153z"/><path d="m33.434 9.413c-.256 0-.512-.098-.707-.293-.391-.391-.391-1.023 0-1.414.39-.39.39-1.024 0-1.414-.391-.39-1.023-.39-1.414 0-.391.391-1.023.391-1.414 0s-.391-1.023 0-1.414c1.17-1.17 3.072-1.17 4.242 0 1.17 1.169 1.17 3.073 0 4.242-.196.195-.452.293-.707.293z"/><path d="m29.19 12.828c-.769 0-1.537-.293-2.122-.878-1.168-1.171-1.167-3.074.002-4.242.391-.391 1.023-.391 1.414 0s.391 1.023 0 1.414c-.39.39-.391 1.024-.001 1.415.389.388 1.024.391 1.415-.001.391-.391 1.023-.391 1.414 0s.391 1.023 0 1.414c-.584.585-1.353.878-2.122.878z"/><path d="m30.605 12.243c-.256 0-.512-.098-.707-.292-.391-.391-.391-1.024 0-1.415l2.828-2.83c.391-.391 1.023-.39 1.414 0 .391.391.391 1.024 0 1.415l-2.828 2.83c-.195.194-.451.292-.707.292z"/><path d="m27.777 9.415c-.256 0-.512-.098-.707-.292-.391-.391-.391-1.024 0-1.415l2.828-2.83c.391-.391 1.023-.39 1.414 0 .391.391.391 1.024 0 1.415l-2.828 2.83c-.195.194-.451.292-.707.292z"/><path d="m25.654 14.364c-.256 0-.512-.098-.707-.293-.391-.391-.391-1.023 0-1.414l2.121-2.121c.391-.391 1.023-.391 1.414 0s.391 1.023 0 1.414l-2.121 2.121c-.195.195-.451.293-.707.293z"/></svg>