<svg height="512pt" viewBox="0 -61 512 512" width="512pt" xmlns="http://www.w3.org/2000/svg"><path d="m512 135v120c0 61.199219-42.101562 113.097656-97.898438 129.300781l-8.101562-39.300781c0-57.898438-47.101562-105-105-105-23.402344 0-37.5 7.800781-45 10.199219-6.898438-2.101563-21.898438-10.199219-45-10.199219-57.898438 0-105 47.101562-105 105l-8.101562 39.300781c-55.796876-16.203125-97.898438-68.101562-97.898438-129.300781v-120h15.300781c1.800781 24.898438 23.800781 45 49.597657 45 25.5 0 46.5-20.101562 48.300781-45 .300781-1.199219.300781-2.402344.300781-3.601562h30c0 1.199218 0 2.402343.300781 3.601562 1.800781 24.898438 22.800781 45 48.597657 45 25.5 0 46.5-20.101562 48.300781-45 .300781-1.199219.300781-2.402344.300781-3.601562h30c0 1.199218 0 2.402343.300781 3.601562 1.800781 24.898438 22.800781 45 48.597657 45 25.5 0 46.5-20.101562 48.300781-45 .300781-1.199219.300781-2.402344.300781-3.601562h30c0 1.199218 0 2.402343.300781 3.601562 1.800781 24.898438 22.800781 45 48.300781 45h.296876c25.5 0 47.5-20.101562 49.300781-45zm0 0" fill="#384949"/><path d="m512 135v120c0 61.199219-42.101562 113.097656-97.898438 129.300781l-8.101562-39.300781c0-57.898438-47.101562-105-105-105-23.402344 0-37.5 7.800781-45 10.199219v-118.800781h15c0 1.199218 0 2.402343.300781 3.601562 1.800781 24.898438 22.800781 45 48.597657 45 25.5 0 46.5-20.101562 48.300781-45 .300781-1.199219.300781-2.402344.300781-3.601562h30c0 1.199218 0 2.402343.300781 3.601562 1.800781 24.898438 22.800781 45 48.300781 45h.296876c25.5 0 47.5-20.101562 49.300781-45zm0 0" fill="#293939"/><path d="m128.5 0 12.1875 60-12.1875 71.398438c0 35.101562-28.5 63.601562-63.601562 63.601562h-.296876c-35.101562 0-64.601562-28.5-64.601562-63.601562v-116.398438c0-8.402344 6.597656-15 15-15zm0 0" fill="#f2f6fc"/><path d="m383.5 0 15 60-15 71.398438c0 35.101562-28.5 63.601562-63.601562 63.601562h-.296876c-35.101562 0-63.601562-28.5-63.601562-63.601562l-11.25-71.398438 11.25-60zm0 0" fill="#dce1eb"/><path d="m256 0v131.398438c0 35.101562-28.5 63.601562-63.601562 63.601562h-.296876c-35.101562 0-63.601562-28.5-63.601562-63.601562v-131.398438zm0 0" fill="#f2f6fc"/><path d="m512 15v116.398438c0 35.101562-29.5 63.601562-64.601562 63.601562h-.296876c-35.101562 0-63.601562-28.5-63.601562-63.601562v-131.398438h113.5c8.402344 0 15 6.597656 15 15zm0 0" fill="#dce1eb"/><path d="m451 105c0 8.398438-6.597656 15-15 15h-360c-8.402344 0-15-6.601562-15-15 0-8.402344 6.597656-15 15-15h360c8.402344 0 15 6.597656 15 15zm0 0" fill="#4a696f"/><path d="m451 105c0 8.398438-6.597656 15-15 15h-180v-30h180c8.402344 0 15 6.597656 15 15zm0 0" fill="#384949"/><path d="m436 150c-8.289062 0-15-6.710938-15-15v-60c0-8.289062 6.710938-15 15-15s15 6.710938 15 15v60c0 8.289062-6.710938 15-15 15zm0 0" fill="#293939"/><path d="m316 150c-8.289062 0-15-6.710938-15-15v-60c0-8.289062 6.710938-15 15-15s15 6.710938 15 15v60c0 8.289062-6.710938 15-15 15zm0 0" fill="#293939"/><path d="m196 150c-8.289062 0-15-6.710938-15-15v-60c0-8.289062 6.710938-15 15-15s15 6.710938 15 15v60c0 8.289062-6.710938 15-15 15zm0 0" fill="#384949"/><path d="m76 150c-8.289062 0-15-6.710938-15-15v-60c0-8.289062 6.710938-15 15-15s15 6.710938 15 15v60c0 8.289062-6.710938 15-15 15zm0 0" fill="#384949"/><path d="m421 345c0 13.5-2.402344 27-6.898438 39.300781-12 3.898438-24.902343 5.699219-38.101562 5.699219h-240c-13.199219 0-26.101562-1.800781-38.101562-5.699219-4.496094-12.300781-6.898438-25.800781-6.898438-39.300781 0-66.300781 53.699219-120 120-120 10.199219 0 20.097656 1.199219 30 4.199219l15 21 15-21c9.902344-3 19.800781-4.199219 30-4.199219 66.300781 0 120 53.699219 120 120zm0 0" fill="#ffa2c3"/><path d="m421 345c0 13.5-2.402344 27-6.898438 39.300781-12 3.898438-24.902343 5.699219-38.101562 5.699219h-120v-139.800781l15-21c9.902344-3 19.800781-4.199219 30-4.199219 66.300781 0 120 53.699219 120 120zm0 0" fill="#ff5e95"/><path d="m271 229.199219v85.800781c0 8.398438-6.597656 15-15 15s-15-6.601562-15-15v-85.800781c5.097656 1.199219 9.902344 2.699219 15 4.800781 5.097656-2.101562 9.902344-3.601562 15-4.800781zm0 0" fill="#ff5e95"/><path d="m271 229.199219v85.800781c0 8.398438-6.597656 15-15 15v-96c5.097656-2.101562 9.902344-3.601562 15-4.800781zm0 0" fill="#ff0059"/></svg>