<svg height="512pt" viewBox="0 -15 512.00026 512" width="512pt" xmlns="http://www.w3.org/2000/svg"><path d="m438.652344 328.046875v145.777344c0 4.308593-3.492188 7.808593-7.8125 7.808593h-349.683594c-4.308594 0-7.808594-3.5-7.808594-7.808593v-145.777344c0-2.839844 1.535156-5.449219 4.007813-6.828125l36.046875-20.078125c6.769531-3.773437 14.042968-4.714844 20.773437-3.453125 5.554688 1.042969 10.738281 3.570312 14.96875 7.257812 5.71875 4.988282 13.695313 6.496094 20.921875 4.191407l22.664063-7.226563c41.160156-13.121094 85.378906-13.121094 126.539062 0l22.671875 7.226563c7.226563 2.304687 15.191406.796875 20.910156-4.191407 4.222657-3.675781 9.40625-6.214843 14.949219-7.257812 6.742188-1.261719 14.027344-.320312 20.808594 3.453125l13.566406 7.558594 22.46875 12.519531c2.480469 1.378906 4.007813 3.988281 4.007813 6.828125zm0 0" fill="#fe9d7f"/><path d="m377.800781 297.6875c-8.703125 39.363281-20.492187 103.011719-26.066406 133.660156-1.449219 7.976563-5.667969 15.234375-11.902344 20.4375-6.246093 5.203125-14.132812 8.0625-22.234375 8.0625-17.257812 0-31.671875-12.371094-34.296875-29.421875l-13.734375-88.929687c-.699218-4.511719-3.589844-8.371094-7.722656-10.320313-1.835938-.863281-3.792969-1.300781-5.84375-1.300781-6.820312 0-12.519531 4.882812-13.550781 11.613281l-13.742188 88.945313c-1.265625 8.179687-5.417969 15.660156-11.710937 21.050781-6.292969 5.386719-14.316406 8.355469-22.585938 8.355469-.378906 0-.769531 0-1.148437-.019532-16.214844-.527343-30.132813-12.703124-33.089844-28.9375-3.539063-19.441406-8.9375-48.671874-14.550781-77.433593-4.882813-25.015625-8.605469-42.929688-11.445313-55.757813 5.550781 1.039063 10.738281 3.570313 14.96875 7.253906 5.71875 4.992188 13.695313 6.496094 20.917969 4.191407l22.664062-7.226563c41.164063-13.121094 85.378907-13.121094 126.539063 0l22.671875 7.226563c7.230469 2.304687 15.195312.800781 20.914062-4.191407 4.222657-3.675781 9.40625-6.214843 14.949219-7.257812zm0 0" fill="#fe825e"/><path d="m438.652344 328.046875v145.777344c0 4.308593-3.492188 7.808593-7.8125 7.808593h-93.585938c68.375-52.871093 76.050782-132.277343 74.921875-172.933593l22.46875 12.519531c2.480469 1.378906 4.007813 3.988281 4.007813 6.828125zm0 0" fill="#fe825e"/><path d="m390.722656 208.390625-17.332031 58.605469c-.015625.070312-.039063.125-.054687.179687-8.035157 26.378907-25.652344 121.257813-33.085938 162.085938-.992188 5.476562-3.875 10.203125-7.898438 13.5625-4.023437 3.355469-9.1875 5.347656-14.761718 5.347656-11.351563 0-21.027344-8.292969-22.753906-19.519531l-13.738282-88.9375c-1.328125-8.574219-6.851562-15.597656-14.28125-19.097656-3.289062-1.554688-6.964844-2.414063-10.816406-2.414063-12.527344 0-23.183594 9.132813-25.089844 21.511719l-13.738281 88.9375c-.867187 5.609375-3.71875 10.496094-7.773437 13.972656-4.234376 3.625-9.785157 5.726562-15.753907 5.53125-10.941406-.359375-20.027343-8.59375-21.988281-19.363281-3.398438-18.675781-8.871094-48.320313-14.574219-77.578125-6.851562-35.128906-14.050781-69.699219-18.417969-84.039063-.015624-.054687-.03125-.109375-.054687-.179687l-17.328125-58.605469c-2.011719-6.804687-2.964844-13.613281-2.964844-20.277344 0-37.882812 30.710938-70.902343 71.085938-70.902343 6.867187 0 13.507812.976562 19.792968 2.789062 30.503907 8.839844 63.097657 8.839844 93.609376 0 6.285156-1.8125 12.925781-2.789062 19.792968-2.789062 14.902344 0 28.484375 4.5 39.6875 12.078124 24.507813 16.566407 37.671875 47.867188 28.4375 79.101563zm0 0" fill="#e5fcf9"/><path d="m157.082031 351.214844c28.402344-.367188 52.886719-4.976563 74.011719-12.691406l-13.921875 90.128906c-.863281 5.609375-3.71875 10.492187-7.773437 13.96875-4.195313 3.597656-9.683594 5.691406-15.59375 5.539062-11.023438-.28125-20.191407-8.617187-22.164063-19.464844-3.398437-18.679687-8.863281-48.273437-14.558594-77.480468zm0 0" fill="#cde8e3"/><path d="m390.722656 208.390625-17.332031 58.605469c-.015625.070312-.039063.125-.054687.179687-8.035157 26.378907-25.652344 121.257813-33.085938 162.085938-.992188 5.476562-3.875 10.203125-7.898438 13.5625-4.023437 3.355469-9.1875 5.347656-14.761718 5.347656-11.351563 0-21.027344-8.292969-22.753906-19.519531l-13.738282-88.9375c-1.328125-8.574219-6.851562-15.597656-14.28125-19.097656l10.234375-7.113282c66.574219-50.734375 81.84375-139.707031 85.234375-184.214844 24.507813 16.566407 37.671875 47.867188 28.4375 79.101563zm0 0" fill="#cde8e3"/><path d="m365.863281 265.261719c-.003906.003906-.003906.007812-.003906.011719 0-.003907 0-.007813.003906-.011719zm0-.011719v.003906zm0 0"/><path d="m266.910156 177.992188c0 3.90625-2.675781 7.5625-7.359375 10.714843-9.5 6.402344-27.238281 10.699219-47.554687 10.699219-20.320313 0-38.058594-4.296875-47.558594-10.699219-4.683594-3.152343-7.355469-6.808593-7.355469-10.714843 0-11.820313 24.585938-21.40625 54.914063-21.40625 30.324218 0 54.914062 9.585937 54.914062 21.40625zm0 0" fill="#4c78a0"/><path d="m259.550781 188.707031c-9.5 6.402344-27.238281 10.703125-47.554687 10.703125-20.320313 0-38.058594-4.300781-47.558594-10.703125 9.5-6.402343 27.238281-10.714843 47.558594-10.714843 20.316406 0 38.054687 4.308593 47.554687 10.714843zm0 0" fill="#336686"/><path d="m304.640625 170.492188c-.023437 0-.050781 0-.074219-.003907h-.105468c-4.269532-.039062-7.695313-3.53125-7.65625-7.796875.042968-4.242187 3.492187-7.652344 7.726562-7.652344h.074219.105469c4.269531.039063 7.695312 3.53125 7.65625 7.800782-.042969 4.242187-3.492188 7.652344-7.726563 7.652344zm0 0" fill="#4c78a0"/><path d="m284.09375 207.136719c-.011719 0-.023438 0-.039062 0l-.105469-.003907c-4.269531-.019531-7.710938-3.492187-7.691407-7.761718.023438-4.253906 3.476563-7.691406 7.726563-7.691406h.035156l.109375.003906c4.265625.019531 7.710938 3.492187 7.691406 7.761718-.023437 4.253907-3.476562 7.691407-7.726562 7.691407zm0 0" fill="#336686"/><path d="m308.953125 201.617188c-.011719 0-.023437 0-.035156 0l-.109375-.003907c-4.265625-.019531-7.707032-3.492187-7.6875-7.761719.019531-4.253906 3.476562-7.6875 7.722656-7.6875h.039062.105469c4.269531.019532 7.710938 3.492188 7.691407 7.761719-.019532 4.253907-3.476563 7.691407-7.726563 7.691407zm0 0" fill="#4c78a0"/><path d="m161.84375 223.015625c-.023438 0-.050781 0-.074219-.003906h-.105469c-4.269531-.039063-7.695312-3.53125-7.65625-7.796875.042969-4.242188 3.492188-7.65625 7.726563-7.65625.023437 0 .050781 0 .074219.003906h.105468c4.269532.039062 7.695313 3.53125 7.65625 7.796875-.042968 4.242187-3.492187 7.65625-7.726562 7.65625zm0 0" fill="#4c78a0"/><path d="m104.902344 253.480469c.421875 1.554687.609375 3.109375.609375 4.625 0 9.539062-7.738281 17.800781-17.835938 17.800781-5.394531 0-10.507812-2.449219-13.886719-6.652344l-57.773437-71.808594-11.390625-14.164062c-3.980469-4.933594-5.503906-11.433594-4.132812-17.636719l20.335937-91.964843 3.421875-15.453126 11.089844-50.148437c1.042968-4.71875 5.226562-8.078125 10.058594-8.078125h102.308593c7.492188 0 12.476563 7.738281 9.382813 14.558594l-69.925782 154.085937c-2 4.40625-2.414062 9.375-1.164062 14.050781zm0 0" fill="#95c6df"/><path d="m104.90625 253.476562c.417969 1.5625.605469 3.109376.605469 4.628907 0 9.535156-7.734375 17.800781-17.835938 17.800781-5.402343 0-10.507812-2.445312-13.890625-6.65625l-57.765625-71.800781c68.714844-47.226563 107.664063-152.640625 121.648438-197.449219h10.042969c7.488281 0 12.472656 7.738281 9.378906 14.558594l-69.925782 154.085937c-2 4.40625-2.40625 9.375-1.164062 14.046875zm0 0" fill="#75a4c8"/><path d="m90.917969 208.839844h-21.398438c-4.265625 0-7.722656-3.460938-7.722656-7.726563s3.457031-7.726562 7.722656-7.726562h21.402344c4.265625 0 7.722656 3.460937 7.722656 7.726562s-3.457031 7.726563-7.726562 7.726563zm0 0" fill="#4c78a0"/><path d="m95.6875 233.917969h-21.398438c-4.269531 0-7.726562-3.460938-7.726562-7.726563s3.457031-7.726562 7.726562-7.726562h21.398438c4.265625 0 7.726562 3.460937 7.726562 7.726562s-3.460937 7.726563-7.726562 7.726563zm0 0" fill="#4c78a0"/><path d="m84.730469 0-14.96875 67.621094c-.78125 3.535156-3.914063 6.058594-7.539063 6.058594h-41.394531l3.421875-15.453126h31.769531l12.878907-58.226562zm0 0" fill="#75a4c8"/><path d="m507.375 183.28125-11.390625 14.164062-57.773437 71.804688c-3.378907 4.203125-8.492188 6.65625-13.886719 6.65625-10.097657 0-17.835938-8.261719-17.835938-17.800781 0-1.515625.1875-3.070313.609375-4.628907l18.902344-70.78125c1.246094-4.679687.835938-9.644531-1.164062-14.054687l-11-24.238281-58.925782-129.84375c-3.09375-6.820313 1.894532-14.558594 9.382813-14.558594h102.296875c4.84375 0 9.027344 3.359375 10.066406 8.078125l11.09375 50.148437 3.410156 15.453126 20.347656 91.964843c1.371094 6.203125-.15625 12.703125-4.132812 17.636719zm0 0" fill="#95c6df"/><path d="m491.160156 73.679688h-41.382812c-3.625 0-6.757813-2.523438-7.539063-6.058594l-14.96875-67.621094h15.832031l12.878907 58.226562h31.769531zm0 0" fill="#75a4c8"/><path d="m507.375 183.28125-11.390625 14.164062-57.773437 71.804688c-3.378907 4.203125-8.492188 6.65625-13.886719 6.65625-10.097657 0-17.835938-8.261719-17.835938-17.800781 0-1.515625.1875-3.070313.609375-4.628907l18.902344-70.78125c1.246094-4.679687.835938-9.644531-1.164062-14.054687l-11-24.238281c28.90625-17.328125 41.226562-43.9375 45.222656-70.722656.773437-5.171876 1.238281-10.34375 1.441406-15.453126.929688-22.355468-2.925781-43.578124-6.613281-58.226562h12.703125c4.839844 0 9.023437 3.359375 10.066406 8.078125l11.09375 50.148437 3.410156 15.453126 20.34375 91.964843c1.375 6.203125-.152344 12.703125-4.128906 17.636719zm0 0" fill="#75a4c8"/><g fill="#4c78a0"><path d="m442.480469 208.839844h-21.398438c-4.269531 0-7.726562-3.460938-7.726562-7.726563s3.457031-7.726562 7.726562-7.726562h21.398438c4.265625 0 7.726562 3.460937 7.726562 7.726562s-3.460937 7.726563-7.726562 7.726563zm0 0"/><path d="m437.714844 233.917969h-21.402344c-4.265625 0-7.722656-3.460938-7.722656-7.726563s3.457031-7.726562 7.722656-7.726562h21.402344c4.265625 0 7.722656 3.460937 7.722656 7.726562s-3.457031 7.726563-7.722656 7.726563zm0 0"/><path d="m491.160156 73.679688h-32.101562c.773437-5.171876 1.234375-10.34375 1.441406-15.453126h27.25zm0 0"/></g></svg>