<svg height="511pt" viewBox="-62 1 511 511.999" width="511pt" xmlns="http://www.w3.org/2000/svg"><path d="m379.738281 57.484375v413.566406c0 18.472657-14.972656 33.445313-33.445312 33.445313h-304.847657c-18.472656 0-33.445312-14.972656-33.445312-33.445313v-413.566406c0-18.472656 14.972656-33.449219 33.445312-33.449219h304.847657c18.472656.003906 33.445312 14.976563 33.445312 33.449219zm0 0" fill="#ffbf00"/><path d="m379.738281 57.484375v413.566406c0 18.472657-14.972656 33.445313-33.445312 33.445313h-104.039063c92.175782-139.613282 82.488282-387.835938 75.050782-480.457032h28.988281c18.472656 0 33.445312 14.972657 33.445312 33.445313zm0 0" fill="#f7a500"/><path d="m337.285156 73.003906v382.527344c0 6.164062-4.984375 11.148438-11.148437 11.148438h-264.535157c-6.164062 0-11.148437-4.984376-11.148437-11.148438v-382.527344c0-6.167968 4.984375-11.152344 11.148437-11.152344h264.535157c6.164062 0 11.148437 4.984376 11.148437 11.152344zm0 0" fill="#e5fcf9"/><path d="m337.285156 73.003906v382.527344c0 6.164062-4.984375 11.148438-11.148437 11.148438h-114.574219c100.335938-101.773438 90.703125-337.34375 85.652344-404.824219h28.921875c6.164062-.003907 11.148437 4.980469 11.148437 11.148437zm0 0" fill="#cde8e3"/><path d="m268.898438 18.652344v49.667968c0 6.152344-4.992188 11.148438-11.148438 11.148438h-127.761719c-6.152343 0-11.148437-4.996094-11.148437-11.148438v-49.667968c0-6.164063 4.996094-11.148438 11.148437-11.148438h127.761719c6.15625 0 11.148438 4.984375 11.148438 11.148438zm0 0" fill="#628fb1"/><path d="m268.898438 18.652344v49.667968c0 6.152344-4.992188 11.148438-11.148438 11.148438h-36.410156c21.046875-27.304688 23.410156-55.429688 22.441406-71.964844h13.96875c6.15625 0 11.148438 4.984375 11.148438 11.148438zm0 0" fill="#4c78a0"/><path d="m245.203125 225.925781-6.605469 22.332031c-.003906.023438-.015625.046876-.019531.066407-3.0625 10.050781-9.777344 46.203125-12.605469 61.761719-.378906 2.085937-1.476562 3.886718-3.011718 5.167968-1.53125 1.277344-3.5 2.035156-5.625 2.035156-4.324219 0-8.011719-3.15625-8.667969-7.4375l-5.234375-33.886718c-.507813-3.269532-2.609375-5.945313-5.441406-7.277344-1.253907-.59375-2.65625-.921875-4.121094-.921875-4.773438 0-8.835938 3.480469-9.5625 8.199219l-5.234375 33.886718c-.328125 2.136719-1.414063 4-2.960938 5.324219-1.613281 1.382813-3.730469 2.183594-6.003906 2.109375-4.167969-.136718-7.628906-3.277344-8.375-7.378906-1.296875-7.117188-3.382813-18.414062-5.554687-29.558594-2.609376-13.386718-5.351563-26.558594-7.019532-32.023437-.003906-.019531-.011718-.042969-.019531-.066407l-6.605469-22.332031c-.761718-2.589843-1.125-5.1875-1.125-7.726562 0-14.433594 11.699219-27.015625 27.082032-27.015625 2.617187 0 5.148437.371094 7.542968 1.0625 11.625 3.367187 24.042969 3.367187 35.667969 0 2.394531-.691406 4.925781-1.0625 7.542969-1.0625 5.679687 0 10.851562 1.714844 15.121094 4.601562 9.339843 6.3125 14.355468 18.238282 10.835937 30.140625zm0 0" fill="#5ce4d9"/><path d="m156.179688 280.347656c10.820312-.140625 20.148437-1.898437 28.199218-4.839844l-5.304687 34.34375c-.328125 2.136719-1.417969 3.996094-2.960938 5.324219-1.703125 1.460938-3.96875 2.269531-6.394531 2.085938-4.050781-.308594-7.289062-3.523438-8.015625-7.519531-1.296875-7.121094-3.367187-18.332032-5.523437-29.394532zm0 0" fill="#09d6c2"/><path d="m245.203125 225.925781-6.605469 22.332031c-.003906.023438-.015625.046876-.019531.066407-3.0625 10.050781-9.777344 46.203125-12.605469 61.761719-.378906 2.085937-1.476562 3.886718-3.011718 5.167968-1.53125 1.277344-3.5 2.035156-5.625 2.035156-4.324219 0-8.011719-3.15625-8.667969-7.4375l-5.234375-33.886718c-.507813-3.269532-2.609375-5.945313-5.441406-7.277344l3.898437-2.710938c25.367187-19.332031 31.183594-53.234374 32.476563-70.191406 9.339843 6.3125 14.355468 18.238282 10.835937 30.140625zm0 0" fill="#09d6c2"/><path d="m379.738281 212.390625c4.144531 0 7.5-3.359375 7.5-7.5v-147.410156c0-22.578125-18.367187-40.945313-40.945312-40.945313h-70.027344c-1.054687-9.292968-8.953125-16.535156-18.519531-16.535156h-127.753906c-9.566407 0-17.464844 7.242188-18.519532 16.53125h-70.027344c-22.578124 0-40.945312 18.371094-40.945312 40.945312v413.578126c0 22.578124 18.367188 40.945312 40.945312 40.945312h304.847657c22.578125 0 40.945312-18.367188 40.945312-40.945312v-233.503907c0-4.144531-3.355469-7.5-7.5-7.5-4.140625 0-7.5 3.355469-7.5 7.5v233.503907c0 14.308593-11.636719 25.945312-25.945312 25.945312h-304.847657c-14.308593 0-25.945312-11.640625-25.945312-25.945312v-413.574219c0-14.308594 11.636719-25.945313 25.945312-25.945313h69.898438v22.816406h-49.746094c-10.28125 0-18.648437 8.363282-18.648437 18.644532v232.121094c0 4.144531 3.359375 7.5 7.5 7.5 4.144531 0 7.5-3.355469 7.5-7.5v-232.121094c0-2.011719 1.636719-3.644532 3.648437-3.644532h49.800782c.539062 9.800782 8.660156 17.613282 18.59375 17.613282h8.347656c.617187 15.890625 13.730468 28.628906 29.765625 28.628906h51.523437c16.039063 0 29.152344-12.738281 29.769532-28.628906h8.34375c9.933593 0 18.054687-7.8125 18.597656-17.613282h49.796875c2.011719 0 3.648437 1.636719 3.648437 3.644532v53.230468c0 4.144532 3.355469 7.5 7.5 7.5 4.144532 0 7.5-3.355468 7.5-7.5v-53.230468c0-10.28125-8.363281-18.644532-18.648437-18.644532h-49.746094v-22.820312h69.902344c14.304687 0 25.945312 11.640625 25.945312 25.945312v147.410157c0 4.144531 3.359375 7.503906 7.5 7.503906zm-160.105469-111.796875h-51.523437c-7.765625 0-14.140625-6.015625-14.738281-13.628906h81c-.601563 7.613281-6.972656 13.628906-14.738282 13.628906zm41.761719-32.277344c0 2.011719-1.636719 3.648438-3.648437 3.648438h-127.753906c-2.011719 0-3.648438-1.636719-3.648438-3.648438v-49.667968c0-2.011719 1.640625-3.648438 3.648438-3.648438h127.753906c2.011718 0 3.648437 1.636719 3.648437 3.648438zm0 0"/><path d="m50.449219 330.277344c-4.140625 0-7.5 3.359375-7.5 7.5v117.757812c0 10.28125 8.367187 18.648438 18.648437 18.648438h264.542969c10.28125 0 18.648437-8.367188 18.648437-18.648438v-296.644531c0-4.144531-3.359374-7.5-7.5-7.5-4.144531 0-7.5 3.355469-7.5 7.5v296.644531c0 2.011719-1.636718 3.648438-3.648437 3.648438h-264.542969c-2.011718 0-3.648437-1.636719-3.648437-3.648438v-117.757812c0-4.140625-3.355469-7.5-7.5-7.5zm0 0"/><path d="m133.90625 218.199219c0 3.308593.484375 6.625 1.4375 9.855469l6.605469 22.328124c.011719.035157.023437.078126.035156.113282 0 .007812.003906.011718.003906.015625.925781 3.042969 2.863281 10.9375 6.832031 31.269531 2.152344 11.058594 4.195313 22.128906 5.53125 29.46875 1.386719 7.59375 7.90625 13.28125 15.515626 13.53125 4.089843.128906 8.023437-1.253906 11.128906-3.914062 2.949218-2.527344 4.898437-6.03125 5.492187-9.871094l5.234375-33.890625c.164063-1.066407 1.066406-1.839844 2.148438-1.839844.324218 0 .632812.070313.925781.207031.65625.308594 1.113281.921875 1.226563 1.636719l5.230468 33.882813c1.230469 7.996093 7.996094 13.796874 16.082032 13.796874 3.800781 0 7.503906-1.339843 10.433593-3.777343 2.921875-2.441407 4.90625-5.847657 5.582031-9.582031 5.714844-31.394532 10.347657-54.15625 12.367188-60.8125.027344-.078126.050781-.152344.074219-.230469l6.601562-22.332031c4.296875-14.523438-1.261719-29.988282-13.824219-38.480469-5.695312-3.851563-12.378906-5.890625-19.324218-5.890625-3.265625 0-6.503906.457031-9.625 1.359375-10.308594 2.984375-21.199219 2.984375-31.503906-.003907-3.121094-.898437-6.359376-1.355468-9.621094-1.355468-19.074219 0-34.589844 15.484375-34.589844 34.515625zm79.878906-18.75c1.765625-.507813 3.605469-.765625 5.460938-.765625 3.9375 0 7.714844 1.144531 10.921875 3.316406 7.121093 4.8125 10.273437 13.574219 7.84375 21.796875l-6.59375 22.289063c-.003907.019531-.011719.035156-.015625.054687-3.066406 10.066406-9.34375 43.542969-12.8125 62.605469-.066406.371094-.273438.613281-.429688.742187-.164062.136719-.441406.300781-.824218.300781-.621094 0-1.160157-.464843-1.257813-1.082031l-5.234375-33.890625c-.875-5.652344-4.484375-10.480468-9.648438-12.910156-2.300781-1.089844-4.769531-1.640625-7.324218-1.640625-8.535156 0-15.675782 6.121094-16.972656 14.550781l-5.234376 33.890625c-.0625.386719-.269531.632813-.429687.769531-.175781.152344-.472656.347657-.878906.3125-.585938-.019531-1.121094-.546874-1.246094-1.226562-1.34375-7.382812-3.398437-18.519531-5.570313-29.652344-3.28125-16.828125-5.707031-27.851562-7.203124-32.769531-.003907-.019531-.011719-.035156-.015626-.050781l-6.589843-22.289063c-.546875-1.847656-.824219-3.730469-.824219-5.601562 0-10.761719 8.789062-19.515625 19.585938-19.515625 1.855468 0 3.695312.257812 5.457031.765625 13.027343 3.777343 26.808593 3.777343 39.835937 0zm0 0"/><path d="m159.289062 375.738281h52.949219c4.140625 0 7.5-3.355469 7.5-7.5 0-4.140625-3.359375-7.5-7.5-7.5h-52.949219c-4.144531 0-7.5 3.359375-7.5 7.5 0 4.144531 3.355469 7.5 7.5 7.5zm0 0"/><path d="m131.628906 360.738281c-4.140625 0-7.5 3.359375-7.5 7.5 0 4.144531 3.359375 7.5 7.5 7.5h.125c4.140625 0 7.5-3.355469 7.5-7.5 0-4.140625-3.359375-7.5-7.5-7.5zm0 0"/><path d="m256.109375 385.675781h-96.820313c-4.144531 0-7.5 3.355469-7.5 7.5 0 4.140625 3.355469 7.5 7.5 7.5h96.820313c4.140625 0 7.5-3.359375 7.5-7.5 0-4.144531-3.359375-7.5-7.5-7.5zm0 0"/><path d="m131.628906 400.675781h.125c4.140625 0 7.5-3.359375 7.5-7.5 0-4.144531-3.359375-7.5-7.5-7.5h-.125c-4.140625 0-7.5 3.355469-7.5 7.5 0 4.140625 3.359375 7.5 7.5 7.5zm0 0"/><path d="m256.109375 410.605469h-96.820313c-4.144531 0-7.5 3.359375-7.5 7.5 0 4.144531 3.355469 7.5 7.5 7.5h96.820313c4.140625 0 7.5-3.355469 7.5-7.5 0-4.140625-3.359375-7.5-7.5-7.5zm0 0"/><path d="m131.628906 425.605469h.125c4.140625 0 7.5-3.355469 7.5-7.5 0-4.140625-3.359375-7.5-7.5-7.5h-.125c-4.140625 0-7.5 3.359375-7.5 7.5 0 4.144531 3.359375 7.5 7.5 7.5zm0 0"/><path d="m205.664062 156.828125c4.144532 0 7.5-3.355469 7.5-7.5 0-4.140625-3.355468-7.5-7.5-7.5h-23.589843c-4.144531 0-7.5 3.359375-7.5 7.5 0 4.144531 3.355469 7.5 7.5 7.5zm0 0"/></svg>