<svg height="512pt" viewBox="-7 0 512 512.002" width="512pt" xmlns="http://www.w3.org/2000/svg"><path d="m260.765625 452.863281h176.296875c15.476562 0 28.300781-13.042969 29.316406-29.816406l18.953125-312.5625 5.644531-92.988281c.328126-5.410156-3.625-9.996094-8.617187-9.996094h-266.890625c-4.992188 0-8.945312 4.585938-8.617188 9.996094l11.242188 185.398437 13.351562 220.15625c1.019532 16.769531 13.84375 29.8125 29.320313 29.8125zm0 0" fill="#a0ecff"/><path d="m490.976562 17.492188-24.59375 405.558593c-1.019531 16.769531-13.84375 29.816407-29.316406 29.816407h-176.296875c-15.484375 0-28.300781-13.046876-29.320312-29.816407l-24.59375-405.558593c-.328125-5.410157 3.617187-9.988282 8.617187-9.988282h266.886719c4.992187 0 8.945313 4.578125 8.617187 9.988282zm0 0" fill="#e5fcf9"/><path d="m490.976562 17.492188-24.59375 405.558593c-1.019531 16.769531-13.84375 29.816407-29.316406 29.816407h-114.371094c128.523438-99.757813 132.410157-365.105469 130.492188-445.363282h29.171875c4.992187 0 8.945313 4.578125 8.617187 9.988282zm0 0" fill="#cde8e3"/><path d="m466.382812 423.050781 13.351563-220.15625c-35.199219-5.398437-76.09375-22.414062-121.976563-59.058593-49.054687-39.191407-100.042968-47.109376-145.261718-33.351563l18.953125 312.5625c1.015625 16.773437 13.839843 29.816406 29.316406 29.816406h176.296875c15.476562 0 28.300781-13.042969 29.320312-29.8125zm0 0" fill="#a0ecff"/><path d="m485.328125 110.484375-18.945313 312.566406c-1.019531 16.769531-13.84375 29.816407-29.316406 29.816407h-176.296875c-15.484375 0-28.300781-13.046876-29.320312-29.816407l-13.359375-220.152343c35.210937-5.402344 76.097656-22.417969 121.980468-59.058594 37.0625-29.613282 75.234376-41.371094 111.175782-39.421875 11.632812.636719 23.03125 2.699219 34.082031 6.066406zm0 0" fill="#60daff"/><path d="m485.328125 110.484375-18.945313 312.566406c-1.019531 16.769531-13.84375 29.816407-29.316406 29.816407h-114.371094c94.28125-73.183594 121.496094-235.488282 128.550782-348.449219 11.632812.636719 23.03125 2.699219 34.082031 6.066406zm0 0" fill="#38aaff"/><path d="m384.59375 395.964844v62.707031h-377.101562v-62.707031c0-22.554688 16.136718-41.871094 38.320312-45.894532 41.0625-7.453124 106.261719-17.847656 150.230469-17.847656 41.007812 0 100.457031 9.035156 141.589843 16.304688 2.984376.519531 5.863282 1.039062 8.640626 1.542968 22.191406 4.019532 38.320312 23.339844 38.320312 45.894532zm0 0" fill="#f55"/><path d="m384.59375 395.964844v62.707031h-132.074219c73.285157-25.554687 85.511719-77.195313 85.113281-110.144531 2.984376.519531 5.863282 1.039062 8.640626 1.542968 22.191406 4.019532 38.320312 23.339844 38.320312 45.894532zm0 0" fill="#f72b2b"/><path d="m127.53125 445.039062v46.847657c0 3.929687-3.179688 7.105469-7.101562 7.105469h-50.1875c-3.921876 0-7.105469-3.175782-7.105469-7.105469v-46.847657c0-17.78125 14.417969-32.199218 32.195312-32.199218 4.953125 0 9.648438 1.113281 13.839844 3.117187 3.332031 1.585938 6.351563 3.730469 8.933594 6.3125 5.824219 5.832031 9.425781 13.875 9.425781 22.769531zm0 0" fill="#e5fcf9"/><path d="m127.53125 445.039062v46.847657c0 3.929687-3.179688 7.105469-7.101562 7.105469h-26.527344c17.820312-28.976563 17.792968-62.203126 15.269531-83.035157 3.332031 1.585938 6.351563 3.730469 8.933594 6.3125 5.824219 5.832031 9.425781 13.875 9.425781 22.769531zm0 0" fill="#cde8e3"/><path d="m196.042969 447.09375v50.300781c0 3.921875-3.175781 7.105469-7.105469 7.105469h-54.296875c-3.921875 0-7.105469-3.183594-7.105469-7.105469v-50.300781c0-18.914062 15.339844-34.253906 34.253906-34.253906 4.140626 0 8.105469.730468 11.78125 2.082031 4.726563 1.726563 8.953126 4.46875 12.441407 7.949219 6.203125 6.203125 10.03125 14.765625 10.03125 24.222656zm0 0" fill="#e5fcf9"/><path d="m196.042969 447.09375v50.300781c0 3.921875-3.175781 7.105469-7.105469 7.105469h-34.15625c21.800781-30.648438 21.601562-67.523438 18.789062-89.578125 4.726563 1.726563 8.953126 4.46875 12.441407 7.949219 6.203125 6.203125 10.03125 14.765625 10.03125 24.222656zm0 0" fill="#cde8e3"/><path d="m264.5625 447.09375v50.300781c0 3.921875-3.183594 7.105469-7.105469 7.105469h-54.308593c-3.921876 0-7.101563-3.183594-7.101563-7.105469v-50.300781c0-18.914062 15.339844-34.253906 34.253906-34.253906 3.480469 0 6.847657.519531 10.011719 1.492187 5.433594 1.65625 10.296875 4.625 14.21875 8.539063 6.195312 6.203125 10.03125 14.765625 10.03125 24.222656zm0 0" fill="#e5fcf9"/><path d="m264.5625 447.09375v50.300781c0 3.921875-3.183594 7.105469-7.105469 7.105469h-35.855469c21.992188-30.925781 21.59375-68.183594 18.710938-90.167969 5.433594 1.65625 10.296875 4.625 14.21875 8.539063 6.195312 6.203125 10.03125 14.765625 10.03125 24.222656zm0 0" fill="#cde8e3"/><path d="m328.957031 445.039062v46.847657c0 3.929687-3.183593 7.105469-7.105469 7.105469h-50.183593c-3.929688 0-7.105469-3.175782-7.105469-7.105469v-46.847657c0-17.78125 14.410156-32.199218 32.195312-32.199218 4.894532 0 9.535157 1.09375 13.691407 3.046875 3.394531 1.59375 6.464843 3.765625 9.082031 6.382812 5.824219 5.832031 9.425781 13.875 9.425781 22.769531zm0 0" fill="#e5fcf9"/><path d="m328.957031 445.039062v46.847657c0 3.929687-3.183593 7.105469-7.105469 7.105469h-26.671874c17.839843-29.003907 17.792968-62.277344 15.269531-83.105469 3.394531 1.59375 6.464843 3.765625 9.082031 6.382812 5.824219 5.832031 9.425781 13.875 9.425781 22.769531zm0 0" fill="#cde8e3"/><path d="m384.59375 440.65625v39.515625c0 3.921875-3.175781 7.101563-7.105469 7.101563h-41.425781c-3.921875 0-7.101562-3.179688-7.101562-7.101563v-39.515625c0-15.359375 12.453124-27.816406 27.816406-27.816406 4.113281 0 8.015625.886718 11.523437 2.492187 3.050781 1.394531 5.804688 3.3125 8.144531 5.65625 5.035157 5.03125 8.148438 11.988281 8.148438 19.667969zm0 0" fill="#e5fcf9"/><path d="m384.59375 440.65625v39.515625c0 3.921875-3.175781 7.101563-7.105469 7.101563h-18.195312c11.722656-26.152344 11.269531-53.886719 9.007812-71.941407 3.050781 1.394531 5.804688 3.3125 8.144531 5.65625 5.035157 5.03125 8.148438 11.988281 8.148438 19.667969zm0 0" fill="#cde8e3"/><path d="m63.136719 440.65625v39.515625c0 3.921875-3.183594 7.101563-7.105469 7.101563h-41.429688c-3.921874 0-7.105468-3.179688-7.105468-7.101563v-39.515625c0-15.359375 12.453125-27.816406 27.824218-27.816406.304688 0 .609376.007812.917969.011718 7.316407.238282 13.917969 3.296876 18.75 8.136719 5.035157 5.03125 8.148438 11.988281 8.148438 19.667969zm0 0" fill="#e5fcf9"/><path d="m63.136719 440.65625v39.515625c0 3.921875-3.183594 7.101563-7.105469 7.101563h-28.476562c12.269531-27.382813 11.195312-56.496094 8.679687-74.421876 7.320313.234376 13.921875 3.296876 18.753906 8.136719 5.035157 5.03125 8.148438 11.988281 8.148438 19.667969zm0 0" fill="#cde8e3"/><path d="m493.855469 5.03125c-3.050781-3.246094-7.136719-5.03125-11.496094-5.03125h-266.890625c-4.359375 0-8.441406 1.785156-11.496094 5.03125-3.21875 3.417969-4.898437 8.125-4.605468 12.917969l14.316406 236.0625c.242187 3.976562 3.542968 7.042969 7.476562 7.042969.152344 0 .308594-.003907.460938-.011719 4.136718-.253907 7.285156-3.808594 7.03125-7.941407l-2.664063-43.964843c38.65625-7.375 78.574219-27.34375 118.765625-59.441407 42.183594-33.703124 87.949219-45.25 132.726563-33.617187l-18.589844 306.519531c-.773437 12.765625-10.363281 22.765625-21.832031 22.765625h-44.960938v-49.398437c0-26.195313-18.707031-48.601563-44.480468-53.273438-33.472657-6.074218-76.699219-13.003906-114.511719-16.191406l-2.46875-40.734375c-.25-4.132813-3.816407-7.261719-7.941407-7.03125-4.132812.25-7.28125 3.804687-7.03125 7.941406l2.351563 38.742188c-7.714844-.445313-15.089844-.695313-21.96875-.695313-14.128906 0-31.460937 1.0625-51.515625 3.15625-4.121094.429688-7.109375 4.117188-6.679688 8.238282.429688 4.117187 4.113282 7.109374 8.238282 6.679687 19.535156-2.039063 36.34375-3.074219 49.957031-3.074219 44.523437 0 112.394531 11.105469 148.894531 17.726563 18.632813 3.378906 32.15625 19.578125 32.15625 38.515625v15.835937c-5.753906-4.0625-12.757812-6.457031-20.320312-6.457031-11.945313 0-22.519532 5.96875-28.914063 15.074219-7.277343-9.175781-18.511719-15.074219-31.101562-15.074219-13.550781 0-25.535157 6.828125-32.699219 17.21875-7.597656-10.425781-19.898438-17.21875-33.757812-17.21875-14.167969 0-26.703126 7.101562-34.253907 17.921875-7.554687-10.824219-20.089843-17.921875-34.257812-17.921875-13.859375 0-26.15625 6.792969-33.757813 17.21875-7.167968-10.390625-19.148437-17.21875-32.695312-17.21875-12.59375 0-23.828125 5.898438-31.105469 15.074219-6.394531-9.105469-16.96875-15.074219-28.914063-15.074219-7.558593 0-14.566406 2.394531-20.320312 6.457031v-15.835937c0-18.9375 13.523438-35.136719 32.15625-38.515625 23.550781-4.269531 45.929688-7.871094 66.515625-10.695313 4.105469-.5625 6.972656-4.347656 6.410156-8.453125-.5625-4.101562-4.34375-6.957031-8.449219-6.410156-20.800781 2.859375-43.394531 6.492187-67.152343 10.800781-25.773438 4.675782-44.480469 27.078125-44.480469 53.273438v84.210937c0 8.050781 6.554688 14.601563 14.605469 14.601563h41.324219c1.34375 6.675781 7.25 11.71875 14.3125 11.71875h50.191406c.894531 0 1.765625-.089844 2.621094-.246094 2.667968 3.488281 6.863281 5.753906 11.589843 5.753906h54.300781c2.578126 0 5-.679687 7.105469-1.859375 2.105469 1.179688 4.523438 1.859375 7.105469 1.859375h54.300781c4.722657 0 8.917969-2.265625 11.589844-5.753906.851563.152344 1.726563.246094 2.621094.246094h50.1875c7.066406 0 12.972656-5.042969 14.316406-11.71875h41.320313c8.054687 0 14.605468-6.550782 14.605468-14.601563v-19.8125h44.96875c19.382813 0 35.550782-16.1875 36.804688-36.855469l20.453125-337.292968c.25-4.132813-2.894531-7.6875-7.03125-7.9375-4.148438-.273438-7.6875 2.894531-7.9375 7.03125l-.945313 15.53125c-21.714844-5.199219-43.8125-5.496094-65.808594-.871094-21.835937 4.589844-43.199218 13.996094-63.691406 28.003906-41.367187-28.28125-85.90625-37.582031-129.484375-27.132812l-5.082031-83.796875c-.042969-.667969.167969-1.3125.554688-1.726563.195312-.207031.386718-.3125.574218-.3125h266.890625c.1875 0 .378907.101563.574219.3125.386719.410156.597656 1.058594.554688 1.726563l-2.15625 35.605469c-.25 4.132812 2.894531 7.6875 7.03125 7.9375 4.125.257812 7.6875-2.898438 7.9375-7.03125l2.160156-35.601563c.289062-4.796875-1.390625-9.503906-4.609375-12.921875zm-478.859375 435.628906c0-11.203125 9.117187-20.320312 20.320312-20.320312s20.320313 9.117187 20.320313 20.320312v39.117188h-40.640625zm55.640625 4.378906c0-13.617187 11.078125-24.699218 24.699219-24.699218 13.617187 0 24.699218 11.082031 24.699218 24.699218v46.457032h-49.398437zm64.398437 2.058594c0-14.753906 12-26.757812 26.753906-26.757812 14.753907 0 26.757813 12.003906 26.757813 26.757812v49.902344h-53.511719zm122.023438 49.902344h-53.511719v-49.902344c0-14.753906 12.003906-26.757812 26.753906-26.757812 14.753907 0 26.757813 12.003906 26.757813 26.757812zm64.398437-5.503906h-49.398437v-46.457032c0-13.617187 11.082031-24.699218 24.699218-24.699218 13.621094 0 24.699219 11.082031 24.699219 24.699218zm55.640625-11.71875h-40.640625v-39.117188c0-11.203125 9.117188-20.320312 20.320313-20.320312s20.320312 9.117187 20.320312 20.320312zm-41.03125-342.332032c-.222656.179688-.449218.347657-.675781.527344-37.597656 30.03125-74.664063 48.855469-110.320313 56.054688l-4.726562-77.949219c38.664062-10.023437 78.421875-2.683594 115.722656 21.367187zm0 0"/></svg>