<svg height="511pt" viewBox="-75 0 511 511.99955" width="511pt" xmlns="http://www.w3.org/2000/svg"><path d="m354.101562 205.964844v287.945312c0 5.847656-4.730468 10.589844-10.578124 10.589844h-324.9375c-5.839844 0-10.589844-4.742188-10.589844-10.589844v-287.945312c0-3.839844 2.089844-7.378906 5.441406-9.25l48.820312-27.191406c5.203126-2.902344 10.632813-4.5625 16.011719-5.140626 5.890625-.648437 11.742188 0 17.199219 1.730469 5.613281 1.78125 10.800781 4.710938 15.222656 8.570313 7.75 6.75 18.5625 8.789062 28.339844 5.667968 0 0 25.703125-9.75 42.023438-9.75 17.472656 0 42.011718 9.75 42.011718 9.75 9.800782 3.121094 20.589844 1.082032 28.339844-5.667968 5.722656-5 12.742188-8.441406 20.261719-9.839844h.011719c4-.75 8.148437-.921875 12.308593-.441406 5.332031.601562 10.691407 2.261718 15.851563 5.121094l5.472656 3.039062 43.359375 24.152344c3.359375 1.871094 5.429687 5.410156 5.429687 9.25zm0 0" fill="#fe9d7f"/><path d="m261.136719 191.792969c3.691406 7.132812 5.363281 15.25 4.621093 23.472656-3.007812 33.582031-11.039062 81.734375-32.171874 120.394531-18.46875 33.773438-21.191407 67.964844-20.21875 90.695313.269531 6.308593-1.960938 12.261719-6.269532 16.761719-4.351562 4.550781-10.453125 7.148437-16.742187 7.148437-6.160157 0-11.960938-2.449219-16.332031-6.910156-9.730469-9.898438-18.699219-21.242188-26.671876-33.710938-42.410156-66.363281-48.960937-152.578125-49.089843-198.070312-.019531-6.550781 1.457031-12.929688 4.238281-18.699219-10.269531-7.492188-18.550781-17.300781-24.230469-28.492188 5.890625-.648437 11.742188 0 17.199219 1.730469 5.613281 1.78125 10.800781 4.710938 15.222656 8.570313 7.75 6.75 18.5625 8.789062 28.339844 5.667968 0 0 25.703125-9.75 42.023438-9.75 17.472656 0 42.011718 9.75 42.011718 9.75 9.800782 3.121094 20.589844 1.082032 28.339844-5.667968 5.722656-5 12.742188-8.441406 20.261719-9.839844h.011719c4-.75 8.148437-.921875 12.308593-.441406-5.390625 10.660156-13.148437 20.03125-22.851562 27.390625zm0 0" fill="#fe825e"/><path d="m354.105469 205.964844v287.945312c0 5.847656-4.730469 10.589844-10.578125 10.589844h-153.949219c115.359375-65.773438 120.226563-247.292969 115.730469-331.933594l43.367187 24.148438c3.355469 1.871094 5.429688 5.40625 5.429688 9.25zm0 0" fill="#fe825e"/><path d="m241.984375 188.378906c7.34375 6.027344 11.746094 15.445313 10.824219 25.71875-2.773438 30.917969-10.285156 78.117188-30.628906 115.320313-20.128907 36.8125-22.808594 73.960937-21.804688 97.492187.390625 9.089844-10.691406 13.84375-17.066406 7.34375-9.519532-9.6875-17.796875-20.34375-24.996094-31.605468-40.683594-63.65625-46.925781-147.191407-47.050781-191.109376-.03125-8.988281 3.921875-17.054687 10.195312-22.539062-22.933593-10.578125-38.847656-33.761719-38.847656-60.660156 0-6.21875.855469-12.230469 2.441406-17.933594 5.375-19.339844 5.273438-39.714844-.785156-58.84375-1.070313-3.378906-1.65625-6.972656-1.65625-10.699219 0-.609375.019531-1.214843.042969-1.8125.933594-18.472656 16.671875-31.574219 33.9375-31.574219 4.113281 0 8.316406.742188 12.414062 2.332032 16.75 6.476562 34.390625 9.71875 52.050782 9.71875 17.640624 0 35.300781-3.242188 52.042968-9.71875 4.910156-1.902344 9.957032-2.589844 14.820313-2.242188 16.300781 1.148438 30.640625 13.878906 31.53125 31.484375.03125.597657.042969 1.203125.042969 1.8125 0 3.726563-.574219 7.308594-1.644532 10.6875-6.058594 19.140625-6.160156 39.515625-.789062 58.855469 1.589844 5.699219 2.445312 11.714844 2.445312 17.933594 0 26.382812-15.308594 49.195312-37.519531 60.039062zm0 0" fill="#e5fcf9"/><path d="m241.984375 188.378906c7.34375 6.027344 11.746094 15.445313 10.824219 25.71875-2.773438 30.917969-10.285156 78.117188-30.628906 115.320313-20.128907 36.8125-22.808594 73.960937-21.804688 97.492187.390625 9.089844-10.691406 13.84375-17.066406 7.34375-9.519532-9.6875-17.796875-20.34375-24.996094-31.605468 7.152344-32.082032 27.429688-71.507813 44.019531-109.546876 36.441407-83.601562-67.683593-98.910156-67.683593-98.910156 85.59375-5.664062 113.269531-82.917968 113.269531-186.625 16.300781 1.148438 30.640625 13.878906 31.53125 31.484375.03125.597657.042969 1.203125.042969 1.8125 0 3.726563-.574219 7.3125-1.644532 10.691407-6.058594 19.136718-6.160156 39.511718-.789062 58.855468 1.589844 5.699219 2.445312 11.714844 2.445312 17.933594 0 26.378906-15.308594 49.191406-37.519531 60.035156zm0 0" fill="#cde8e3"/><path d="m352.324219 190.167969-48.828125-27.195313c-6.945313-3.867187-14.414063-5.980468-22.039063-6.304687 3.605469-8.796875 5.542969-18.375 5.542969-28.328125 0-6.769532-.910156-13.480469-2.710938-19.945313-5.070312-18.222656-4.824218-37.097656.714844-54.578125 1.320313-4.179687 1.992188-8.535156 1.992188-12.949218 0-.734376-.019532-1.46875-.054688-2.199219-.664062-13.0625-7.414062-24.6875-18.527344-31.894531-11.292968-7.324219-25.507812-8.808594-38.023437-3.964844-31.816406 12.3125-66.863281 12.3125-98.679687 0-12.515626-4.839844-26.730469-3.359375-38.023438 3.964844-11.109375 7.210937-17.859375 18.835937-18.523438 31.894531-.035156.726562-.054687 1.460937-.054687 2.199219 0 4.421874.671875 8.785156 2 12.96875 5.539063 17.460937 5.785156 36.328124.710937 54.5625-1.800781 6.460937-2.710937 13.171874-2.710937 19.941406 0 9.890625 1.996094 19.496094 5.667969 28.34375-7.675782.320312-15.253906 2.441406-22.164063 6.289062l-48.824219 27.195313c-5.730468 3.1875-9.289062 9.246093-9.289062 15.800781v287.941406c0 9.976563 8.113281 18.089844 18.085938 18.089844h203.085937c4.144531 0 7.5-3.359375 7.5-7.5 0-4.144531-3.355469-7.5-7.5-7.5h-203.085937c-1.699219 0-3.085938-1.386719-3.085938-3.089844v-287.941406c0-1.121094.609375-2.152344 1.585938-2.699219l48.828124-27.191406c7.414063-4.128906 15.574219-5.417969 23.679688-3.757813 5.441406 7.40625 12.253906 13.828126 20.167969 18.835938-3.898438 6.019531-6.023438 13.097656-6.003907 20.410156.066407 23.699219 1.917969 60.058594 10.335938 98.6875.882812 4.050782 4.878906 6.613282 8.925781 5.734375 4.046875-.882812 6.613281-4.878906 5.730469-8.925781-8.140625-37.347656-9.925781-72.566406-9.992188-95.539062-.015624-4.914063 1.597657-9.652344 4.511719-13.515626 7.96875 3.277344 24.089844 8.878907 41.1875 8.878907 4.144531 0 7.5-3.355469 7.5-7.5 0-4.140625-3.355469-7.5-7.5-7.5-20.011719 0-39.742187-9.636719-39.777343-9.652344-.03125-.015625-.054688-.03125-.085938-.046875-20.949219-9.667969-34.484375-30.804688-34.484375-53.847656 0-5.410156.730469-10.765625 2.164063-15.921875 5.855468-21.050781 5.558593-42.875-.867188-63.121094-.859375-2.710937-1.296875-5.546875-1.296875-8.429687 0-.480469.011719-.960938.035156-1.441407.417969-8.195312 4.683594-15.511719 11.710938-20.066406 7.265625-4.714844 16.402343-5.671875 24.445312-2.5625 35.308594 13.664063 74.199219 13.664063 109.503907 0 8.039062-3.109375 17.179687-2.152344 24.445312 2.5625 7.027344 4.554687 11.292969 11.871094 11.710938 20.0625.019531.480469.035156.960937.035156 1.445313 0 2.875-.4375 5.707031-1.292969 8.417968-6.421875 20.261719-6.71875 42.09375-.863281 63.128906 1.433594 5.15625 2.160156 10.515626 2.160156 15.921876 0 22.84375-12.761719 43.269531-33.308594 53.300781-.003906.003906-14.765625 7.261719-23.46875 10.800781-3.835937 1.558594-5.683594 5.9375-4.121094 9.773438 1.183594 2.910156 3.988282 4.675781 6.949219 4.675781.941407 0 1.898438-.179688 2.824219-.554688 6.023438-2.449219 14.371094-6.378906 19.585938-8.878906 3.601562 4.460937 5.394531 10.164063 4.875 15.96875-2.832032 31.648437-10.292969 76.835937-29.742188 112.402344-20.734375 37.914062-23.792969 76.070312-22.710938 101.402343.058594 1.355469-.761718 2-1.457031 2.304688-.585937.253906-1.726562.527344-2.765625-.53125-22.171875-22.574219-39.4375-52.769531-51.3125-89.746094-1.265625-3.941406-5.488281-6.113281-9.433594-4.847656-3.941406 1.269531-6.113281 5.492188-4.847656 9.4375 12.597656 39.222656 31.066406 71.410156 54.890625 95.667969 3.375 3.4375 7.847657 5.25 12.421875 5.25 2.355469 0 4.742188-.480469 7.019532-1.46875 6.671874-2.898438 10.78125-9.453125 10.472656-16.707031-1.003906-23.429688 1.808594-58.679688 20.886718-93.566407 20.6875-37.832031 28.5625-85.191406 31.523438-118.261719.785156-8.777343-1.570312-17.421874-6.476562-24.511718 7.425781-4.902344 13.789062-11 18.90625-17.972656.023437-.003907.050781-.007813.074218-.011719 8.019532-1.566407 16.117188-.25 23.410156 3.816406l48.828126 27.191406c.980468.546875 1.585937 1.578125 1.585937 2.699219v55.898438c0 4.140624 3.359375 7.5 7.5 7.5 4.144531 0 7.5-3.359376 7.5-7.5v-55.898438c0-6.558594-3.558594-12.613281-9.285156-15.800781zm0 0"/><path d="m354.109375 287.03125c-4.144531 0-7.5 3.359375-7.5 7.5v199.378906c0 1.703125-1.386719 3.089844-3.085937 3.089844h-89.1875c-4.144532 0-7.503907 3.355469-7.503907 7.5 0 4.140625 3.359375 7.5 7.503907 7.5h89.1875c9.972656 0 18.085937-8.113281 18.085937-18.089844v-199.378906c0-4.144531-3.355469-7.5-7.5-7.5zm0 0"/><path d="m240.09375 43.609375c-1.496094-3.859375-5.835938-5.78125-9.699219-4.285156-31.820312 12.308593-66.863281 12.308593-98.679687 0-3.867188-1.496094-8.210938.421875-9.703125 4.285156-1.496094 3.863281.425781 8.207031 4.289062 9.703125 17.652344 6.832031 36.203125 10.246094 54.75 10.246094 18.550781 0 37.101563-3.417969 54.753907-10.246094 3.863281-1.496094 5.785156-5.839844 4.289062-9.703125zm0 0"/></svg>