<?xml version="1.0" encoding="iso-8859-1"?>
<!-- Generator: Adobe Illustrator 19.0.0, SVG Export Plug-In . SVG Version: 6.00 Build 0)  -->
<svg version="1.1" id="Capa_1" xmlns="http://www.w3.org/2000/svg" xmlns:xlink="http://www.w3.org/1999/xlink" x="0px" y="0px"
	 viewBox="0 0 480 480" style="enable-background:new 0 0 480 480;" xml:space="preserve">
<circle style="fill:#85D9E9;" cx="239.996" cy="72" r="64"/>
<circle style="fill:#FAFAFA;" cx="239.996" cy="72" r="40"/>
<rect x="223.996" y="136" style="fill:#D6F2F8;" width="32" height="32"/>
<rect x="223.996" y="168" style="fill:#85D9E9;" width="32" height="56"/>
<rect x="215.996" y="224" style="fill:#FAFAFA;" width="48" height="208"/>
<rect x="215.996" y="288" style="fill:#85D9E9;" width="48" height="80"/>
<path id="SVGCleanerId_0" style="fill:#85D9E9;" d="M255.996,432h-32v24c0,8.84,7.16,16,16,16l0,0c8.84,0,16-7.16,16-16V432z"/>
<g>
	<path id="SVGCleanerId_0_1_" style="fill:#85D9E9;" d="M255.996,432h-32v24c0,8.84,7.16,16,16,16l0,0c8.84,0,16-7.16,16-16V432z"/>
</g>
<rect x="375.996" y="136" style="fill:#85D9E9;" width="32" height="32"/>
<rect x="375.996" y="168" style="fill:#D6F2F8;" width="32" height="56"/>
<g>
	<rect x="367.996" y="224" style="fill:#85D9E9;" width="48" height="208"/>
	<path style="fill:#85D9E9;" d="M407.996,432h-32v24c0,8.84,7.16,16,16,16l0,0c8.84,0,16-7.16,16-16V432z"/>
</g>
<rect x="367.996" y="400" style="fill:#FAFAFA;" width="48" height="32"/>
<rect x="63.996" y="120" style="fill:#85D9E9;" width="48" height="256"/>
<g>
	<rect x="71.996" y="376" style="fill:#D6F2F8;" width="32" height="96"/>
	<polygon style="fill:#D6F2F8;" points="95.996,88 79.996,88 71.996,120 103.996,120 	"/>
</g>
<path d="M239.996,0c-39.704,0-72,32.296-72,72c0,31.28,20.08,57.888,48,67.8V168v48c-4.424,0-8,3.576-8,8v64v80v64
	c0,4.424,3.576,8,8,8v16c0,13.232,10.768,24,24,24s24-10.768,24-24v-16c4.424,0,8-3.576,8-8v-64v-80v-64c0-4.424-3.576-8-8-8v-48
	v-28.2c27.92-9.912,48-36.52,48-67.8C311.996,32.296,279.7,0,239.996,0z M255.996,280h-32v-48h32V280z M255.996,424h-32v-48h32V424z
	 M255.996,360h-32v-64h32V360z M247.996,456c0,4.416-3.584,8-8,8s-8-3.584-8-8v-16h16V456z M231.996,216v-40h16v40H231.996z
	 M247.996,144v16h-16v-16H247.996z M239.996,128c-30.872,0-56-25.128-56-56s25.128-56,56-56s56,25.128,56,56
	S270.868,128,239.996,128z"/>
<path d="M239.996,24c-26.472,0-48,21.528-48,48s21.528,48,48,48s48-21.528,48-48S266.468,24,239.996,24z M239.996,104
	c-17.648,0-32-14.352-32-32s14.352-32,32-32c17.648,0,32,14.352,32,32S257.644,104,239.996,104z"/>
<path d="M388.956,279.36c0.96,0.4,2,0.64,3.04,0.64s2.08-0.24,3.04-0.64s1.832-0.96,2.64-1.76c0.72-0.728,1.28-1.6,1.68-2.56
	s0.64-2,0.64-3.04c0-2.08-0.88-4.168-2.32-5.68c-2.96-2.96-8.4-2.96-11.36,0c-1.448,1.512-2.32,3.6-2.32,5.68
	c0,2.16,0.8,4.16,2.32,5.6C387.116,278.4,387.916,278.96,388.956,279.36z"/>
<path d="M386.316,325.6c0.8,0.8,1.6,1.36,2.64,1.76c0.96,0.4,2,0.64,3.04,0.64c2.16,0,4.16-0.808,5.68-2.4
	c0.72-0.728,1.28-1.6,1.68-2.56s0.64-2,0.64-3.04c0-2.08-0.88-4.168-2.32-5.68c-0.4-0.32-0.808-0.72-1.28-0.96
	c-0.4-0.32-0.88-0.56-1.36-0.72c-0.488-0.24-0.96-0.4-1.52-0.488c-2.552-0.552-5.36,0.32-7.192,2.168
	c-1.456,1.512-2.328,3.6-2.328,5.68c0,1.04,0.16,2.08,0.552,3.04C385.036,324,385.596,324.872,386.316,325.6z"/>
<path d="M446.004,13.544C438.404,4.936,427.468,0,415.996,0h-16c-22.056,0-40,17.944-40,40v32c0,16.36,9.896,30.416,24,36.608V128
	h-8c-4.424,0-8,3.576-8,8v32v48c-4.424,0-8,3.576-8,8v176v32c0,4.424,3.576,8,8,8v16c0,13.232,10.768,24,24,24s24-10.768,24-24v-16
	c4.424,0,8-3.576,8-8v-32V224c0-4.424-3.576-8-8-8v-48v-32c0-4.424-3.576-8-8-8h-8v-16c4.424,0,8-3.576,8-8s-3.576-8-8-8
	c-13.232,0-24-10.768-24-24V40c0-13.232,10.768-24,24-24h16c6.88,0,13.448,2.968,18.008,8.144c2.944,3.312,7.984,3.632,11.296,0.704
	C448.612,21.92,448.924,16.856,446.004,13.544z M383.996,144h16v16h-16V144z M375.996,408h32v16h-32V408z M407.996,392h-32V232h32
	V392z M399.996,456c0,4.416-3.584,8-8,8s-8-3.584-8-8v-16h16V456z M383.996,216v-40h16v40H383.996z"/>
<path d="M135.996,368h-16V120c0-4.424-3.576-8-8-8h-1.76l-6.488-25.936C102.86,82.496,99.668,80,95.996,80V40
	c0-2.432-1.104-4.728-3-6.248l-40-32C49.532-1.016,44.508-0.432,41.748,3c-2.76,3.456-2.2,8.488,1.248,11.248l37,29.592V80
	c-3.672,0-6.864,2.496-7.76,6.064L65.756,112h-1.76c-4.424,0-8,3.576-8,8v248h-16c-4.424,0-8,3.576-8,8s3.576,8,8,8h24v80h-8
	c-4.424,0-8,3.576-8,8s3.576,8,8,8h16h32h16c4.424,0,8-3.576,8-8s-3.576-8-8-8h-8v-80h24c4.424,0,8-3.576,8-8
	S140.42,368,135.996,368z M86.244,96h3.504l4,16H82.244L86.244,96z M71.996,320h8c4.424,0,8-3.576,8-8s-3.576-8-8-8h-8v-32h8
	c4.424,0,8-3.576,8-8s-3.576-8-8-8h-8v-32h8c4.424,0,8-3.576,8-8s-3.576-8-8-8h-8v-32h8c4.424,0,8-3.576,8-8s-3.576-8-8-8h-8v-32h32
	v240h-32V320z M95.996,464h-16v-80h16V464z"/>
<g>
</g>
<g>
</g>
<g>
</g>
<g>
</g>
<g>
</g>
<g>
</g>
<g>
</g>
<g>
</g>
<g>
</g>
<g>
</g>
<g>
</g>
<g>
</g>
<g>
</g>
<g>
</g>
<g>
</g>
</svg>
